inDegrees=yes
name=ik_S54_A12_T01
DataType=double
version=3
OpenSimVersion=4.3-2021-08-27-4bc7ad9
endheader
time	pelvis_tilt	pelvis_list	pelvis_rotation	pelvis_tx	pelvis_ty	pelvis_tz	hip_flexion_r	hip_adduction_r	hip_rotation_r	knee_angle_r	knee_angle_r_beta	ankle_angle_r	subtalar_angle_r	mtp_angle_r	hip_flexion_l	hip_adduction_l	hip_rotation_l	knee_angle_l	knee_angle_l_beta	ankle_angle_l	subtalar_angle_l	mtp_angle_l	lumbar_extension	lumbar_bending	lumbar_rotation	arm_flex_r	arm_add_r	arm_rot_r	elbow_flex_r	pro_sup_r	wrist_flex_r	wrist_dev_r	arm_flex_l	arm_add_l	arm_rot_l	elbow_flex_l	pro_sup_l	wrist_flex_l	wrist_dev_l
0	0	0	0	0	0.9399999999999999	0	0	0	0	0	0	0	0	0	0	0	0	0	0	0	0	0	0	0	0	0	0	0	0	89.99999999963507	0	0	0	0	0	0	89.99999999869995	0	0
0.02	-0.2207406892029787	-1.204367212294813	38.40137830632249	0	0.9399999999999999	0	1.376508864156676	-0.6695488207733912	-0.4619094439897913	2.169946521899831	0.0378727113993513	0	0	0	1.376508864156676	-0.6695488207733912	-0.4619094439897913	2.169946521899831	0.0378727113993513	0	0	0	0.612049520048594	-0.2140232623433071	17.61698327322146	13.07989403313203	-1.327185412617864	3.090048319404163	5.879222862332584	146.2864679378896	0	0	9.743959601621501	-8.055871277849448	-2.235049997905612	11.65566937936535	142.8785915771759	0	0
0.04	-0.2199841138686854	-1.197397559348625	38.44634327078392	0	0.9399999999999999	0	1.739883118850447	-0.8468506847137973	-0.5890328087040062	2.640419906690668	0.04608402100695361	0	0	0	1.739883118850447	-0.8468506847137973	-0.5890328087040062	2.640419906690668	0.04608402100695361	0	0	0	0.6123774252283111	-0.2152884319709649	17.56094722112137	13.02989881019575	-1.291526461524412	3.132810413997062	5.956651802515913	146.2240790386318	0	0	9.684663568351628	-8.056267497794686	-2.231593581388756	11.75404088606268	142.8179077128567	0	0
0.06	-0.2316124458659449	-1.217544503137765	38.45921335718604	0	0.9399999999999999	0	1.807327605891666	-0.8823157529463358	-0.6132327230856617	2.723511557249086	0.04753424389011458	0	0	0	1.807327605891666	-0.8823157529463358	-0.6132327230856617	2.723511557249086	0.04753424389011458	0	0	0	0.5891442348218857	-0.2247745909725906	17.54912468084448	13.04630421993398	-1.259752727325128	3.14627316067393	5.94912757777668	146.2657708601519	0	0	9.705120327205057	-8.052722805005047	-2.215226457383374	11.78680745016631	142.8198557640798	0	0
0.08	-0.2507675443996122	-1.258561044643665	38.44739620352742	0	0.9399999999999999	0	1.835886480291179	-0.9060798869072911	-0.6218671051137793	2.812035353804859	0.04907927560637845	0	0	0	1.835886480291179	-0.9060798869072911	-0.6218671051137793	2.812035353804859	0.04907927560637845	0	0	0	0.5483101145819784	-0.2451820139421462	17.54169265184737	13.10156429924795	-1.225327906004978	3.195525637175501	5.982250026735033	146.2860012529836	0	0	9.790523730194533	-8.073731849809972	-2.232349195937303	11.81613545890602	142.8399287475395	0	0
0.1	-0.2371171847938739	-1.280703445945146	38.80311249306504	0	0.9399999999999999	0	3.512968884448191	-1.735648708343262	-1.216331302782118	4.981208595122359	0.08693849071352631	0	0	0	3.512968884448191	-1.735648708343262	-1.216331302782118	4.981208595122359	0.08693849071352631	0	0	0	0.5036176218686917	-0.2645503817897125	17.20085187923812	13.14577807226947	-1.208024665659542	3.18919910354517	5.960874311436407	146.3185014847277	0	0	9.783606390692727	-8.097731787968845	-2.170036103932706	11.86985191898343	142.8083707072644	0	0
0.12	-0.2432512925714787	-1.299602140395725	38.76874363552348	0	0.9399999999999999	0	3.517280749167528	-1.737800893707553	-1.217796261553215	4.987102830455454	0.08704136452697621	0	0	0	3.517280749167528	-1.737800893707553	-1.217796261553215	4.987102830455454	0.08704136452697621	0	0	0	0.487026490779074	-0.2755124668277124	17.2068361677299	13.15202178702516	-1.194863968835371	3.276327626200275	5.968138441103889	146.3331794153282	0	0	9.774379949550497	-8.047839616742856	-2.041064835769001	11.88513280070043	142.7809319728294	0	0
0.14	-0.2534572924744236	-1.328314919591051	38.82512016552285	0	0.9399999999999999	0	3.806762491336375	-1.860289496131532	-1.322972009427453	5.200914369349516	0.09077307985943352	0	0	0	3.806762491336375	-1.860289496131532	-1.322972009427453	5.200914369349516	0.09077307985943352	0	0	0	0.4538613792751254	-0.294624979854795	17.15904908381009	13.21576705615403	-1.193321432704194	3.26322953057237	5.972910943527076	146.3793013486306	0	0	9.808133267078453	-8.044425533366004	-1.920321507841185	11.95178156192001	142.6304362545504	0	0
0.16	-0.2512874481787228	-1.345667939824747	38.82881611525791	0	0.9399999999999999	0	3.810142340093492	-1.861941057239883	-1.324115159101106	5.205525964318678	0.09085356737541379	0	0	0	3.810142340093492	-1.861941057239883	-1.324115159101106	5.205525964318678	0.09085356737541379	0	0	0	0.4447232207667847	-0.3095794040161132	17.16485205710259	13.20772330917802	-1.173560782769428	3.341915844754419	5.974428070625038	146.389128682551	0	0	9.816558564383072	-8.022963348585092	-1.816667758970045	11.95811300832777	142.6496247651826	0	0
0.18	-0.2496205224501037	-1.378635139927928	38.88931873026783	0	0.9399999999999999	0	4.076204368061739	-1.971913781217239	-1.420672455588711	5.390590920900061	0.09408356019781927	0	0	0	4.076204368061739	-1.971913781217239	-1.420672455588711	5.390590920900061	0.09408356019781927	0	0	0	0.4183239642092689	-0.3387663741174908	17.12091605157251	13.26485549728874	-1.145937797466999	3.30758960398884	5.94643399608051	146.4232604596205	0	0	9.857128102072807	-8.021986702737772	-1.704174165823814	11.96684903228119	142.5797760370569	0	0
0.2	-0.2501842950554085	-1.39977604028741	38.90829320995719	0	0.9399999999999999	0	4.081038955001893	-1.974310617786251	-1.422314744798809	5.397163832147188	0.09419827914052301	0	0	0	4.081038955001893	-1.974310617786251	-1.422314744798809	5.397163832147188	0.09419827914052301	0	0	0	0.4043762398211231	-0.3548347301119824	17.11151259572706	13.21649588456005	-1.180331195887256	3.440539865241856	5.965160693643852	146.3929525449701	0	0	9.891675017457008	-7.998752581954485	-1.620823634609188	11.96987614703288	142.5684840528282	0	0
0.22	-0.2633967665949886	-1.441839733102416	38.93067936311863	0	0.9399999999999999	0	4.10405988997611	-1.98587944944421	-1.430164292817781	5.428392780023182	0.09474332710289279	0	0	0	4.10405988997611	-1.98587944944421	-1.430164292817781	5.428392780023182	0.09474332710289279	0	0	0	0.3673025269849865	-0.3794504954050145	17.10882885794646	13.24438946095311	-1.17560612351458	3.519192345987419	6.043992932908548	146.2206747654539	0	0	9.969801601805941	-7.970046345815065	-1.556737158195919	11.93916212951043	142.4773022627856	0	0
0.24	-0.243891379983194	-1.455466725744952	39.07360061445907	0	0.9399999999999999	0	4.895872443509111	-2.335291429834757	-1.70682053394461	6.240911335371857	0.108924451127275	0	0	0	4.895872443509111	-2.335291429834757	-1.70682053394461	6.240911335371857	0.108924451127275	0	0	0	0.3421506656227055	-0.39316249079309	16.97742369441006	13.21922610043814	-1.184378428802954	3.549476806971338	6.114396293179754	146.1678154500896	0	0	9.973701443352258	-7.946693778221203	-1.511821523728269	11.97252946418055	142.436011755181	0	0
0.26	-0.2242797375472794	-1.476134297813268	39.26222041433077	0	0.9399999999999999	0	5.909292872949772	-2.767192298251247	-2.056846013830335	7.241334308161589	0.1263851259150454	0	0	0	5.909292872949772	-2.767192298251247	-2.056846013830335	7.241334308161589	0.1263851259150454	0	0	0	0.3253729358686822	-0.3849339999220394	16.77903836284552	13.2026167164741	-1.182375797437711	3.579273361502198	6.10701466500764	146.0786589935828	0	0	9.948896397020677	-7.90807738854526	-1.481184153038559	12.01328217248487	142.3454802741161	0	0
0.28	-0.2200119543457054	-1.487677903418558	39.40916411186431	0	0.9399999999999999	0	6.655503066087773	-3.066844740357229	-2.310756082725376	7.944989896757853	0.1386662327361089	0	0	0	6.655503066087773	-3.066844740357229	-2.310756082725376	7.944989896757853	0.1386662327361089	0	0	0	0.2963069350204464	-0.396731588511736	16.60264059354168	13.20150006806846	-1.174734794797993	3.5660840119713	6.110233011537694	146.1559335007825	0	0	9.979446556521815	-7.881880488865797	-1.514492866556777	11.96569852996194	142.3796198346332	0	0
0.3	-0.2105939538474262	-1.507975216070723	39.44164919824885	0	0.9399999999999999	0	6.723738747645211	-3.093781948404678	-2.334251256302137	8.001924560947439	0.1396599300847345	0	0	0	6.723738747645211	-3.093781948404678	-2.334251256302137	8.001924560947439	0.1396599300847345	0	0	0	0.2890444098218282	-0.4195151165861472	16.59870832343481	13.19019878601076	-1.15329340419793	3.546996030348176	6.081116294672452	146.113908276559	0	0	9.969916556623046	-7.87750903399604	-1.485127918080222	11.98852300593926	142.3565686796931	0	0
0.32	-0.1829071279358914	-1.505331717009263	39.64542262181372	0	0.9399999999999999	0	7.591237727732806	-3.439837828636115	-2.6255643525956	8.850228262836653	0.1544656227395577	0	0	0	7.591237727732806	-3.439837828636115	-2.6255643525956	8.850228262836653	0.1544656227395577	0	0	0	0.2909614355678733	-0.4344398704065031	16.40474588698532	13.1164213611035	-1.127592404910895	3.526213017199427	6.093346355301782	146.0440818688159	0	0	9.906664297943598	-7.877933567752277	-1.470446128017959	12.03663189120999	142.353488506287	0	0
